<svg id="remove_dark" xmlns="http://www.w3.org/2000/svg" width="18" height="18" viewBox="0 0 18 18">
  <rect id="iconBase" width="18" height="18" fill="none"/>
  <path id="Add" d="M54.605,27.076v2.16l-.023.243-.076.2-.1.193-.125.145-.173.148-.2.1-.2.075-.221.023H39.691l-.2-.023-.221-.075-.173-.1-.173-.148-.147-.145-.074-.193-.074-.2-.025-.243v-2.16l.025-.22.074-.193.074-.2.147-.17.173-.12.173-.123.221-.048.2-.025H53.5l.221.025.2.048.2.123.173.12.125.17.1.2.076.193.023.22Z" transform="translate(-37.918 -19.156)" fill="#a8a8a8" fill-rule="evenodd"/>
</svg>
